<svg width="1440" height="835" viewBox="0 0 1440 835" fill="none" xmlns="http://www.w3.org/2000/svg">
<g clip-path="url(#clip0_2014_6)">
<path fill-rule="evenodd" clip-rule="evenodd" d="M113.311 158.057C114.471 157.66 115.692 157.132 116.633 156.367C117.751 155.459 118.206 154.289 118.511 153.057C118.903 151.475 119.06 149.79 119.535 148.206C119.711 147.617 120.05 147.395 120.195 147.296C120.562 147.047 120.934 146.98 121.283 147.005C121.697 147.034 122.266 147.184 122.64 147.852C122.693 147.947 122.762 148.093 122.809 148.292C122.843 148.438 122.865 148.895 122.901 149.084C122.991 149.548 123.066 150.012 123.137 150.479C123.372 152.032 123.508 153.351 124.251 154.778C125.26 156.715 126.27 157.9 127.641 158.425C128.966 158.933 130.551 158.838 132.576 158.44C132.768 158.395 132.959 158.356 133.148 158.325C134.04 158.175 134.894 158.738 135.069 159.593C135.244 160.448 134.677 161.281 133.792 161.468C133.608 161.507 133.426 161.545 133.246 161.579C130.51 162.23 127.342 164.554 125.502 166.59C124.934 167.217 124.104 168.972 123.256 170.091C122.631 170.916 121.928 171.461 121.338 171.653C120.943 171.782 120.61 171.763 120.334 171.697C119.934 171.602 119.602 171.394 119.348 171.063C119.209 170.881 119.08 170.638 119.019 170.328C118.99 170.179 118.986 169.799 118.987 169.627C118.814 169.056 118.603 168.498 118.449 167.922C118.082 166.547 117.361 165.677 116.505 164.527C115.704 163.45 114.844 162.774 113.584 162.234C113.42 162.196 112.096 161.884 111.629 161.706C110.946 161.443 110.621 161.004 110.503 160.768C110.302 160.366 110.282 160.016 110.322 159.723C110.381 159.292 110.582 158.923 110.94 158.625C111.161 158.44 111.492 158.259 111.934 158.172C112.276 158.103 113.184 158.063 113.311 158.057ZM121.074 155.816C121.136 155.948 121.201 156.08 121.27 156.213C122.748 159.05 124.4 160.634 126.408 161.403L126.475 161.428C125.132 162.387 123.916 163.459 122.986 164.486C122.604 164.909 122.097 165.788 121.55 166.69C121.052 165.135 120.239 164.036 119.216 162.661C118.435 161.612 117.616 160.822 116.61 160.179C117.391 159.793 118.136 159.342 118.784 158.815C119.864 157.938 120.578 156.921 121.074 155.816Z" fill="#6352FE"/>
</g>
<g clip-path="url(#clip1_2014_6)">
<path fill-rule="evenodd" clip-rule="evenodd" d="M607.311 523.057C608.471 522.66 609.692 522.132 610.633 521.367C611.751 520.459 612.206 519.289 612.511 518.057C612.903 516.475 613.06 514.79 613.535 513.206C613.711 512.617 614.05 512.395 614.195 512.296C614.562 512.047 614.934 511.98 615.283 512.005C615.697 512.034 616.266 512.184 616.64 512.852C616.693 512.947 616.762 513.093 616.809 513.292C616.843 513.438 616.865 513.895 616.901 514.084C616.991 514.548 617.066 515.012 617.137 515.479C617.372 517.032 617.508 518.351 618.251 519.778C619.26 521.715 620.27 522.9 621.641 523.425C622.966 523.933 624.551 523.838 626.576 523.44C626.768 523.395 626.959 523.356 627.148 523.325C628.04 523.175 628.894 523.738 629.069 524.593C629.244 525.448 628.677 526.281 627.792 526.468C627.608 526.507 627.426 526.545 627.246 526.579C624.51 527.23 621.342 529.554 619.502 531.59C618.934 532.217 618.104 533.972 617.256 535.091C616.631 535.916 615.928 536.461 615.338 536.653C614.943 536.782 614.61 536.763 614.334 536.697C613.934 536.602 613.602 536.394 613.348 536.063C613.209 535.881 613.08 535.638 613.019 535.328C612.99 535.179 612.986 534.799 612.987 534.627C612.814 534.056 612.603 533.498 612.449 532.922C612.082 531.547 611.361 530.677 610.505 529.527C609.704 528.45 608.844 527.774 607.584 527.234C607.42 527.196 606.096 526.884 605.629 526.706C604.946 526.443 604.621 526.004 604.503 525.768C604.302 525.366 604.282 525.016 604.322 524.723C604.381 524.292 604.582 523.923 604.94 523.625C605.161 523.44 605.492 523.259 605.934 523.172C606.276 523.103 607.184 523.063 607.311 523.057ZM615.074 520.816C615.136 520.948 615.201 521.08 615.27 521.213C616.748 524.05 618.4 525.634 620.408 526.403L620.475 526.428C619.132 527.387 617.916 528.459 616.986 529.486C616.604 529.909 616.097 530.788 615.55 531.69C615.052 530.135 614.239 529.036 613.216 527.661C612.435 526.612 611.616 525.822 610.61 525.179C611.391 524.793 612.136 524.342 612.784 523.815C613.864 522.938 614.578 521.921 615.074 520.816Z" fill="#A8E2FE"/>
</g>
<g clip-path="url(#clip2_2014_6)">
<path fill-rule="evenodd" clip-rule="evenodd" d="M703.311 489.057C704.471 488.66 705.692 488.132 706.633 487.367C707.751 486.459 708.206 485.289 708.511 484.057C708.903 482.475 709.06 480.79 709.535 479.206C709.711 478.617 710.05 478.395 710.195 478.296C710.562 478.047 710.934 477.98 711.283 478.005C711.697 478.034 712.266 478.184 712.64 478.852C712.693 478.947 712.762 479.093 712.809 479.292C712.843 479.438 712.865 479.895 712.901 480.084C712.991 480.548 713.066 481.012 713.137 481.479C713.372 483.032 713.508 484.351 714.251 485.778C715.26 487.715 716.27 488.9 717.641 489.425C718.966 489.933 720.551 489.838 722.576 489.44C722.768 489.395 722.959 489.356 723.148 489.325C724.04 489.175 724.894 489.738 725.069 490.593C725.244 491.448 724.677 492.281 723.792 492.468C723.608 492.507 723.426 492.545 723.246 492.579C720.51 493.23 717.342 495.554 715.502 497.59C714.934 498.217 714.104 499.972 713.256 501.091C712.631 501.916 711.928 502.461 711.338 502.653C710.943 502.782 710.61 502.763 710.334 502.697C709.934 502.602 709.602 502.394 709.348 502.063C709.209 501.881 709.08 501.638 709.019 501.328C708.99 501.179 708.986 500.799 708.987 500.627C708.814 500.056 708.603 499.498 708.449 498.922C708.082 497.547 707.361 496.677 706.505 495.527C705.704 494.45 704.844 493.774 703.584 493.234C703.42 493.196 702.096 492.884 701.629 492.706C700.946 492.443 700.621 492.004 700.503 491.768C700.302 491.366 700.282 491.016 700.322 490.723C700.381 490.292 700.582 489.923 700.94 489.625C701.161 489.44 701.492 489.259 701.934 489.172C702.276 489.103 703.184 489.063 703.311 489.057ZM711.074 486.816C711.136 486.948 711.201 487.08 711.27 487.213C712.748 490.05 714.4 491.634 716.408 492.403L716.475 492.428C715.132 493.387 713.916 494.459 712.986 495.486C712.604 495.909 712.097 496.788 711.55 497.69C711.052 496.135 710.239 495.036 709.216 493.661C708.435 492.612 707.616 491.822 706.61 491.179C707.391 490.793 708.136 490.342 708.784 489.815C709.864 488.938 710.578 487.921 711.074 486.816Z" fill="#E0EA50"/>
</g>
<circle cx="580" cy="179" r="9" fill="#E0EA50"/>
<path fill-rule="evenodd" clip-rule="evenodd" d="M98.0291 461.907C93.852 458.473 90.4672 454.384 87.9237 449.62C87.4151 448.671 86.2314 448.309 85.2727 448.818C84.3238 449.326 83.9618 450.51 84.4705 451.469C87.2683 456.683 90.9662 461.163 95.5444 464.93C96.376 465.614 97.6183 465.497 98.3031 464.665C98.9879 463.824 98.8607 462.592 98.0291 461.907Z" fill="#6352FE"/>
<path fill-rule="evenodd" clip-rule="evenodd" d="M95.8017 448.534C96.0169 452.486 96.2126 456.438 96.4572 460.39C96.5257 461.467 97.455 462.288 98.5311 462.22C99.6072 462.151 100.429 461.222 100.36 460.146C100.116 456.203 99.9202 452.261 99.705 448.309C99.6463 447.236 98.7169 446.409 97.6408 446.47C96.5648 446.53 95.7332 447.455 95.8017 448.534Z" fill="#6352FE"/>
<path fill-rule="evenodd" clip-rule="evenodd" d="M110.325 449.336C107.821 453.112 104.984 456.595 102.127 460.117C101.442 460.958 101.57 462.191 102.411 462.866C103.252 463.55 104.485 463.423 105.16 462.582C108.095 458.972 111.01 455.382 113.592 451.498C114.189 450.598 113.935 449.385 113.035 448.788C112.145 448.192 110.922 448.436 110.325 449.336Z" fill="#6352FE"/>
<path fill-rule="evenodd" clip-rule="evenodd" d="M120.026 463.374C113.237 463.677 106.027 463.687 99.2379 463.257C98.1618 463.198 97.2325 464.01 97.164 465.096C97.0955 466.172 97.9173 467.101 98.9934 467.17C105.919 467.6 113.276 467.59 120.202 467.287C121.278 467.238 122.119 466.319 122.071 465.243C122.022 464.167 121.102 463.325 120.026 463.374Z" fill="#6352FE"/>
<path fill-rule="evenodd" clip-rule="evenodd" d="M95.5393 464.616C99.7263 469.743 104.06 474.771 107.944 480.132C108.58 481.002 109.802 481.198 110.683 480.562C111.554 479.926 111.749 478.703 111.113 477.833C107.181 472.413 102.798 467.326 98.5622 462.141C97.8774 461.31 96.6448 461.183 95.8132 461.868C94.9719 462.552 94.8545 463.785 95.5393 464.616Z" fill="#6352FE"/>
<path fill-rule="evenodd" clip-rule="evenodd" d="M96.8073 466.104C97.9029 471.445 98.2062 476.552 98.2845 481.961C98.2942 483.038 99.1845 483.898 100.261 483.889C101.346 483.869 102.207 482.989 102.188 481.903C102.109 476.239 101.787 470.907 100.642 465.311C100.417 464.255 99.3899 463.57 98.3236 463.795C97.2671 464.01 96.5823 465.047 96.8073 466.104Z" fill="#6352FE"/>
<path fill-rule="evenodd" clip-rule="evenodd" d="M96.9839 465.674C93.8143 472.013 92.1806 479.056 88.786 485.258C88.2676 486.198 88.6197 487.391 89.5686 487.909C90.5175 488.428 91.7013 488.076 92.2197 487.137C95.6339 480.895 97.2871 473.813 100.486 467.425C100.965 466.456 100.574 465.282 99.6153 464.793C98.6469 464.314 97.473 464.705 96.9839 465.674Z" fill="#6352FE"/>
<path fill-rule="evenodd" clip-rule="evenodd" d="M98.7282 464.235C92.4184 465.35 86.1184 465.859 79.7695 466.612C78.6934 466.739 77.9304 467.708 78.0575 468.784C78.1847 469.86 79.1533 470.623 80.2294 470.496C86.6468 469.743 93.025 469.214 99.4131 468.089C100.47 467.894 101.184 466.876 100.998 465.82C100.802 464.753 99.7945 464.039 98.7282 464.235Z" fill="#6352FE"/>
<path fill-rule="evenodd" clip-rule="evenodd" d="M103.119 461.262C101.818 461.203 100.585 461.115 99.3133 460.929C98.2372 460.772 97.2491 461.516 97.0926 462.582C96.9361 463.649 97.6795 464.646 98.7458 464.803C100.155 465.008 101.514 465.106 102.943 465.165C104.019 465.214 104.938 464.382 104.977 463.296C105.026 462.22 104.195 461.311 103.119 461.262Z" fill="#6352FE"/>
<g filter="url(#filter0_f_2014_6)">
<ellipse cx="1466" cy="182.5" rx="182" ry="182.5" fill="#F2C2F3"/>
</g>
<g filter="url(#filter1_f_2014_6)">
<ellipse cx="1409.5" cy="266.5" rx="194.5" ry="182.5" fill="#98C9FF" fill-opacity="0.74"/>
</g>
<g filter="url(#filter2_f_2014_6)">
<ellipse cx="1132.5" cy="352.5" rx="194.5" ry="182.5" fill="#FFDFDB"/>
</g>
<defs>
<filter id="filter0_f_2014_6" x="984" y="-300" width="964" height="965" filterUnits="userSpaceOnUse" color-interpolation-filters="sRGB">
<feFlood flood-opacity="0" result="BackgroundImageFix"/>
<feBlend mode="normal" in="SourceGraphic" in2="BackgroundImageFix" result="shape"/>
<feGaussianBlur stdDeviation="150" result="effect1_foregroundBlur_2014_6"/>
</filter>
<filter id="filter1_f_2014_6" x="915" y="-216" width="989" height="965" filterUnits="userSpaceOnUse" color-interpolation-filters="sRGB">
<feFlood flood-opacity="0" result="BackgroundImageFix"/>
<feBlend mode="normal" in="SourceGraphic" in2="BackgroundImageFix" result="shape"/>
<feGaussianBlur stdDeviation="150" result="effect1_foregroundBlur_2014_6"/>
</filter>
<filter id="filter2_f_2014_6" x="638" y="-130" width="989" height="965" filterUnits="userSpaceOnUse" color-interpolation-filters="sRGB">
<feFlood flood-opacity="0" result="BackgroundImageFix"/>
<feBlend mode="normal" in="SourceGraphic" in2="BackgroundImageFix" result="shape"/>
<feGaussianBlur stdDeviation="150" result="effect1_foregroundBlur_2014_6"/>
</filter>
<clipPath id="clip0_2014_6">
<rect width="26" height="25" fill="white" transform="translate(110 147)"/>
</clipPath>
<clipPath id="clip1_2014_6">
<rect width="26" height="25" fill="white" transform="translate(604 512)"/>
</clipPath>
<clipPath id="clip2_2014_6">
<rect width="26" height="25" fill="white" transform="translate(700 478)"/>
</clipPath>
</defs>
</svg>
